# xmcd
#
# Track frame offsets:
#	150
#	14800
#	36598
#	53795
#	67678
#	86168
#	100378
#	114980
#	128860
#	143763
#
# Disc length: 2122 seconds
#
# Revision: 1
# Processed by: cddbd v1.5.2PL0 Copyright (c) Steve Scherf et al.
# Submitted via: audiograbber 1.83.01
#
DISCID=8b08480a
DTITLE=Various Artist - JVC062
DYEAR=1900
DGENRE=Karaoke
TTITLE0=Confederate Railroad - Queen Of Memphis
TTITLE1=Travis Tritt - Lord Have Mercy On The Working Man
TTITLE2=Billy Ray Cyrus - Could've Been Me
TTITLE3=Tracy Lawrence - Alibis
TTITLE4=Trisha Yearwood - Walkaway Joe
TTITLE5=Randy Travis - Look Heart, No Hands
TTITLE6=Collin Raye - In This Life
TTITLE7=Mark Chesnutt - Bubba Shot The Jukebox
TTITLE8=Brooks and Dunn - Boot Scootin' Boogie
TTITLE9=Pam Tillis - Shake The Sugar Tree
EXTD=
EXTT0=
EXTT1=
EXTT2=
EXTT3=
EXTT4=
EXTT5=
EXTT6=
EXTT7=
EXTT8=
EXTT9=
PLAYORDER=
